# xmcd
#
# Track frame offsets: 
#        150
#        9318
#        25678
#        48718
#        61662
#        75457
#        87200
#        99367
#        111616
#        122400
#        134079
#        147158
#        159852
#        175080
#        186876
#        202377
#        216217
#        229938
#        241089
#        254479
#        263697
#        272343
#        284829
#        298704
#        308517
#
# Disc length: 4339 seconds
#
# Revision: 1
# Processed by: cddbd v1.5.2PL0 Copyright (c) Steve Scherf et al.
# Submitted via: ExactAudioCopyFreeDBPlugin 1.0
#
DISCID=6510f119
DTITLE=Ray Charles - The Very Best Of Ray Charles  - CD1
DYEAR=2012
DGENRE=Blues
TTITLE0=Hit The Road Jack
TTITLE1=Georgia On My Mind
TTITLE2=What'd I Say
TTITLE3=I've Got A Woman
TTITLE4=A Fool For You
TTITLE5=Hallelujah, I Love Her So
TTITLE6=Leave My Woman Alone
TTITLE7=Mess Around
TTITLE8=I'm Movin' On
TTITLE9=This Little Girl Of Mine
TTITLE10=Let The Good Times Roll
TTITLE11=Mary Ann
TTITLE12=Drown In My Own Tears
TTITLE13=Lonely Avenue
TTITLE14=Just For A Thrill
TTITLE15=Chattanooga Choo-Choo
TTITLE16=Moonlight In Vermont
TTITLE17='Deed I Do
TTITLE18=Blue Hawaii
TTITLE19=Carry Me Back To Old Virginny
TTITLE20=Alabamy Bound
TTITLE21=Basin Street Blues
TTITLE22=New York's My Home
TTITLE23=California, Here I Come
TTITLE24=Don't Let The Sun Catch You Cryin'
EXTD=
EXTT0=
EXTT1=
EXTT2=
EXTT3=
EXTT4=
EXTT5=
EXTT6=
EXTT7=
EXTT8=
EXTT9=
EXTT10=
EXTT11=
EXTT12=
EXTT13=
EXTT14=
EXTT15=
EXTT16=
EXTT17=
EXTT18=
EXTT19=
EXTT20=
EXTT21=
EXTT22=
EXTT23=
EXTT24=
PLAYORDER=
